M48
INCH
T01C0.015
T02C0.0276
T03C0.032
T04C0.0354
T05C0.0394
T06C0.04
T07C0.052
T08C0.084
%
T01
X+017359Y+017254
X+016422Y+017254
X+016484Y+018254
X+016984Y+018629
X+018172Y+019316
X+018547Y+019066
X+018672Y+017066
X+016859Y+014566
X+015797Y+015566
X+015172Y+015879
X+014672Y+016316
X+014109Y+015566
X+014109Y+014504
X+014672Y+012691
X+015672Y+012691
X+016305Y+012026
X+015984Y+011379
X+015672Y+010816
X+016297Y+010754
X+017359Y+010941
X+018672Y+010941
X+017922Y+007691
X+017172Y+007504
X+016277Y+006606
X+015172Y+007504
X+015797Y+008691
X+014922Y+010316
X+014395Y+011079
X+013672Y+011879
X+013047Y+011566
X+012207Y+010856
X+013047Y+010316
X+012484Y+009754
X+012422Y+008004
X+012922Y+007316
X+010922Y+006941
X+010484Y+006441
X+010922Y+006004
X+008672Y+006316
X+008359Y+007316
X+006984Y+007254
X+006547Y+007316
X+006297Y+006629
X+006922Y+006066
X+005484Y+006316
X+004922Y+006191
X+004797Y+007254
X+005172Y+007691
X+005109Y+008129
X+006859Y+008066
X+006922Y+008879
X+006047Y+010504
X+006047Y+011901
X+007047Y+011575
X+007047Y+012566
X+007797Y+012316
X+008297Y+011441
X+007984Y+010816
X+008859Y+012066
X+010178Y+011573
X+011172Y+012004
X+011797Y+012316
X+010422Y+012816
X+011797Y+015566
X+012297Y+015566
X+011797Y+016316
X+010859Y+016066
X+009984Y+016004
X+009172Y+016379
X+008422Y+017066
X+008359Y+017941
X+009109Y+018321
X+009422Y+017504
X+010172Y+017879
X+010422Y+018316
X+011172Y+018504
X+011797Y+018754
X+011484Y+020004
X+012797Y+020754
X+012734Y+021191
X+013297Y+020254
X+011734Y+021691
X+011734Y+022191
X+011734Y+022691
X+010797Y+022691
X+010672Y+022316
X+009297Y+022691
X+009234Y+022316
X+009109Y+021941
X+008672Y+021816
X+008484Y+021504
X+008984Y+021066
X+007422Y+019941
X+007234Y+019316
X+007734Y+019066
X+006734Y+021066
X+006297Y+021254
X+005484Y+022066
X+004984Y+022191
X+004609Y+022441
X+004484Y+021816
X+004359Y+021441
X+004547Y+024441
X+004359Y+025379
X+004672Y+025691
X+005047Y+025941
X+006672Y+024316
X+007422Y+024647
X+009547Y+023691
X+010484Y+024691
X+011297Y+024191
X+012797Y+026004
X+013984Y+026941
X+014734Y+027629
X+015109Y+026816
X+015984Y+029816
X+016797Y+030566
X+016984Y+030941
X+017359Y+031129
X+017672Y+031566
X+015047Y+033191
X+014047Y+033816
X+013172Y+034191
X+014797Y+034816
X+015297Y+035441
X+015047Y+036566
X+013922Y+036941
X+014297Y+037816
X+011297Y+036066
X+009672Y+035941
X+008547Y+036941
X+008172Y+037691
X+009672Y+034316
X+010172Y+034316
X+010797Y+034316
X+011422Y+034316
X+008984Y+033816
X+009172Y+031504
X+009547Y+030691
X+011047Y+031004
X+011609Y+031504
X+011172Y+031754
X+012422Y+031691
X+012172Y+030754
X+012422Y+029941
X+009359Y+026941
X+006172Y+030051
X+005234Y+032566
X+004984Y+032879
X+004547Y+033066
X+005922Y+033816
X+018172Y+035691
X+017672Y+040566
X+018922Y+042191
X+016422Y+044691
X+016172Y+046066
X+016484Y+022504
X+014672Y+017504
X+012688Y+017026
X+008422Y+015566
X+007797Y+015566
X+007672Y+016316
X+006797Y+015879
X+006422Y+016316
X+010547Y+008816
T02
X+013640Y+045160
X+009703Y+045160
T03
X+013112Y+019691
X+014112Y+019691
X+010112Y+019691
X+009112Y+019691
X+006172Y+019691
X+005172Y+019691
T04
X+012656Y+044175
X+011672Y+044175
X+010688Y+044175
X+010688Y+046144
X+011672Y+046144
X+012656Y+046144
T05
X+007902Y+031991
X+006922Y+031988
X+005942Y+031991
X+005942Y+026241
X+006922Y+026238
X+007902Y+026241
X+007902Y+020491
X+006922Y+020488
X+005942Y+020491
X+014676Y+020497
X+015656Y+020494
X+016636Y+020497
X+016636Y+026286
X+015656Y+026284
X+014676Y+026286
X+014676Y+032001
X+015656Y+031998
X+016636Y+032001
X+007888Y+039004
X+006908Y+039001
X+005928Y+039004
T06
X+013672Y+004571
X+009672Y+004571
X+005672Y+004571
X+005672Y+014061
X+005672Y+014071
X+009672Y+014071
X+009672Y+014061
X+013672Y+014061
X+013672Y+014071
X+017672Y+014071
X+017672Y+014061
X+017672Y+004571
X+018672Y+024879
X+018672Y+025879
X+018672Y+026879
X+018609Y+030879
X+018609Y+031879
X+018609Y+032879
X+012422Y+027941
X+012422Y+026941
X+011422Y+026941
X+010422Y+026941
X+010422Y+027941
X+011422Y+027941
X+014552Y+039941
X+014172Y+041441
X+014172Y+042441
X+013172Y+042441
X+013172Y+041441
X+012172Y+041441
X+011172Y+041441
X+011172Y+042441
X+012172Y+042441
X+010172Y+042441
X+010172Y+041441
X+014552Y+043941
T07
X+013672Y+005571
X+013672Y+008821
X+013672Y+009811
X+013672Y+013061
X+013672Y+015071
X+013672Y+018321
X+009672Y+018321
X+009672Y+015071
X+009672Y+013061
X+009672Y+009811
X+009672Y+008821
X+009672Y+005571
X+005672Y+005571
X+005672Y+008821
X+005672Y+009811
X+005672Y+013061
X+005672Y+015071
X+005672Y+018321
X+017672Y+018321
X+017672Y+015071
X+017672Y+013061
X+017672Y+009811
X+017672Y+008821
X+017672Y+005571
X+018802Y+039941
X+015552Y+039941
X+015552Y+043941
X+018802Y+043941
T08
X+005052Y+034941
X+008792Y+034941
X+013786Y+034951
X+017526Y+034951
X+017526Y+029236
X+013786Y+029236
X+008792Y+029191
X+005052Y+029191
X+005052Y+023441
X+008792Y+023441
X+013786Y+023447
X+017526Y+023447
X+008778Y+041954
X+005038Y+041954
T00
M30
