G04 DipTrace 3.2.0.1*
G04 ugrids02.GBS*
%MOIN*%
G04 #@! TF.FileFunction,Soldermask,Bot*
G04 #@! TF.Part,Single*
%AMOUTLINE7*
4,1,8,
0.034184,-0.014159,
0.014159,-0.034184,
-0.014159,-0.034184,
-0.034184,-0.014159,
-0.034184,0.014159,
-0.014159,0.034184,
0.014159,0.034184,
0.034184,0.014159,
0.034184,-0.014159,
0*%
%AMOUTLINE9*
4,1,8,
0.024021,0.00995,
0.00995,0.024021,
-0.00995,0.024021,
-0.024021,0.00995,
-0.024021,-0.00995,
-0.00995,-0.024021,
0.00995,-0.024021,
0.024021,-0.00995,
0.024021,0.00995,
0*%
%AMOUTLINE12*
4,1,8,
0.02197,0.0091,
0.0091,0.02197,
-0.0091,0.02197,
-0.02197,0.0091,
-0.02197,-0.0091,
-0.0091,-0.02197,
0.0091,-0.02197,
0.02197,-0.0091,
0.02197,0.0091,
0*%
%ADD30C,0.074*%
%ADD33C,0.055433*%
%ADD54O,0.108031X0.149291*%
%ADD56O,0.083031X0.093031*%
%ADD62C,0.073031*%
%ADD64O,0.093031X0.083031*%
%ADD75OUTLINE7*%
%ADD77OUTLINE9*%
%ADD80OUTLINE12*%
%FSLAX26Y26*%
G04*
G70*
G90*
G75*
G01*
G04 BotMask*
%LPD*%
D64*
X1367178Y557104D3*
Y882104D3*
D62*
Y457104D3*
D64*
X967178Y557104D3*
Y882104D3*
D62*
Y457104D3*
D64*
X567178Y557104D3*
Y882104D3*
D62*
Y457104D3*
D64*
X1367178Y1507104D3*
Y1832104D3*
D62*
Y1407104D3*
D64*
X967178Y1507104D3*
Y1832104D3*
D62*
Y1407104D3*
D64*
X567178Y1507104D3*
Y1832104D3*
D62*
Y1407104D3*
D56*
X1555178Y4394104D3*
X1880178D3*
D62*
X1455178D3*
X790178Y3199104D3*
X692178Y3198829D3*
X594178Y3199104D3*
D54*
X505178Y3494104D3*
X879178D3*
D75*
X1042178Y2694104D3*
Y2794104D3*
X1142178Y2694104D3*
Y2794104D3*
X1242178Y2694104D3*
Y2794104D3*
X1017178Y4144104D3*
Y4244104D3*
X1117178Y4144104D3*
Y4244104D3*
X1217178Y4144104D3*
Y4244104D3*
X1317178Y4144104D3*
Y4244104D3*
X1417178Y4144104D3*
Y4244104D3*
D30*
X1867177Y2487854D3*
Y2587854D3*
Y2687854D3*
X1860927Y3287855D3*
Y3187855D3*
Y3087855D3*
D77*
X1311199Y1969104D3*
X1411199D3*
X911199D3*
X1011199D3*
X517178D3*
X617178D3*
D64*
X1367178Y1306104D3*
Y981104D3*
D62*
Y1406104D3*
D64*
X967178Y1306104D3*
Y981104D3*
D62*
Y1406104D3*
D64*
X567178Y1306104D3*
Y981104D3*
D62*
Y1406104D3*
X788800Y3900355D3*
X690800Y3900079D3*
X592800Y3900355D3*
D54*
X503800Y4195355D3*
X877800D3*
D62*
X790178Y2624104D3*
X692178Y2623829D3*
X594178Y2624104D3*
D54*
X505178Y2919104D3*
X879178D3*
D62*
X1663603Y2049695D3*
X1565603Y2049419D3*
X1467603Y2049695D3*
D54*
X1378603Y2344695D3*
X1752603D3*
D62*
X790178Y2049104D3*
X692178Y2048829D3*
X594178Y2049104D3*
D54*
X505178Y2344104D3*
X879178D3*
D62*
X1663603Y2628632D3*
X1565603Y2628356D3*
X1467603Y2628632D3*
D54*
X1378603Y2923632D3*
X1752603D3*
D62*
X1663603Y3200060D3*
X1565603Y3199784D3*
X1467603Y3200060D3*
D54*
X1378603Y3495060D3*
X1752603D3*
D64*
X1767178Y1507104D3*
Y1832104D3*
D62*
Y1407104D3*
D56*
X1555178Y3994104D3*
X1880178D3*
D62*
X1455178D3*
D80*
X1364028Y4515955D3*
X970328D3*
D33*
X1265603Y4417530D3*
X1167178D3*
X1068753D3*
X1265603Y4614380D3*
X1167178D3*
X1068753D3*
D64*
X1767178Y557104D3*
Y882104D3*
D62*
Y457104D3*
D64*
Y1306104D3*
Y981104D3*
D62*
Y1406104D3*
M02*
