G04 DipTrace 3.2.0.1*
G04 ugrids02.GTO*
%MOIN*%
G04 #@! TF.FileFunction,Legend,Top*
G04 #@! TF.Part,Single*
%ADD10C,0.009843*%
%ADD14C,0.008*%
%ADD18C,0.006*%
%ADD19C,0.002*%
%ADD23C,0.000013*%
%ADD24C,0.004*%
%ADD32C,0.002756*%
%ADD66C,0.004632*%
%FSLAX26Y26*%
G04*
G70*
G90*
G75*
G01*
G04 TopSilk*
%LPD*%
X595712Y2881604D2*
D23*
G02X595712Y2881604I96466J0D01*
G01*
X654775Y2779232D2*
D24*
X589816D1*
Y2930826D1*
X642962Y2983977D1*
X654775D1*
X729581D2*
X741394D1*
X794540Y2930826D1*
Y2779232D1*
X729581D1*
X658706Y2791049D2*
G02X658706Y2972160I33497J90556D01*
G01*
X725651Y2791049D2*
G03X725651Y2972160I-33497J90556D01*
G01*
X1470712Y2837855D2*
D23*
G02X1470712Y2837855I96466J0D01*
G01*
X1529775Y2735482D2*
D24*
X1464816D1*
Y2887076D1*
X1517962Y2940228D1*
X1529775D1*
X1604581D2*
X1616394D1*
X1669540Y2887076D1*
Y2735482D1*
X1604581D1*
X1533706Y2747299D2*
G02X1533706Y2928411I33497J90556D01*
G01*
X1600651Y2747299D2*
G03X1600651Y2928411I-33497J90556D01*
G01*
X1225799Y3308104D2*
D23*
G02X1225799Y3308104I14143J0D01*
G01*
X1269915Y3062132D2*
D18*
X993969D1*
Y3338077D1*
X1255947D1*
X1269915Y3324109D2*
Y3062132D1*
Y3324109D2*
X1255947Y3338077D1*
X1506251Y870278D2*
D10*
X1703105D1*
X1506251Y972655D2*
X1703105D1*
Y870278D2*
Y972655D1*
X1506251Y901772D2*
Y870278D1*
Y941161D2*
Y972655D1*
Y901772D2*
G03X1506251Y941161I-9J19694D01*
G01*
X1106251Y1345278D2*
X1303105D1*
X1106251Y1447655D2*
X1303105D1*
Y1345278D2*
Y1447655D1*
X1106251Y1376772D2*
Y1345278D1*
Y1416161D2*
Y1447655D1*
Y1376772D2*
G03X1106251Y1416161I-9J19694D01*
G01*
X706251Y1345278D2*
X903105D1*
X706251Y1447655D2*
X903105D1*
Y1345278D2*
Y1447655D1*
X706251Y1376772D2*
Y1345278D1*
Y1416161D2*
Y1447655D1*
Y1376772D2*
G03X706251Y1416161I-9J19694D01*
G01*
X1198168Y2529104D2*
D18*
G03X1183163Y2544104I-15000J0D01*
G01*
X1059193Y2144104D2*
G02X1044188Y2159104I-18J14987D01*
G01*
Y2529104D2*
G02X1059193Y2544104I14987J13D01*
G01*
X1183163Y2144104D2*
G03X1198168Y2159104I32J14974D01*
G01*
X1183163Y2544104D2*
X1059193D1*
Y2144104D2*
X1101182D1*
X1141174D1*
X1183163D1*
X1101182D2*
G02X1141174Y2144104I19996J4D01*
G01*
X1184193D2*
D19*
Y2544104D1*
X1444186Y2362251D2*
D18*
Y2226023D1*
X1690170D2*
Y2362251D1*
X1444186D2*
X1690170D1*
Y2226023D2*
X1444186D1*
X992178Y2669098D2*
D14*
X1017168Y2644112D1*
X1067178D2*
X1092168Y2669098D1*
X1117188Y2644112D1*
X1167168D2*
X1192188Y2669098D1*
X1217178Y2644112D1*
X1267188D2*
X1292178Y2669098D1*
X992178D2*
Y2819097D1*
X1017168Y2844104D1*
X1067178D1*
X1092168Y2819097D1*
X1117188Y2844104D1*
X1167168D1*
X1192188Y2819097D1*
X1217178Y2844104D1*
X1267188D1*
X1292178Y2819097D1*
X1092168D2*
Y2669098D1*
X1192188Y2819097D2*
Y2669098D1*
X1292178Y2819097D2*
Y2669098D1*
X1217178Y2644112D2*
X1267188D1*
X1117188D2*
X1167168D1*
X1017168D2*
X1067178D1*
Y2630915D2*
X1017168D1*
G36*
X1207178Y4154109D2*
X1227178D1*
Y4134129D1*
X1207178D1*
Y4154109D1*
G37*
X967178Y4119099D2*
D18*
X992178Y4094102D1*
X1042178D2*
X1067178Y4119099D1*
X1092178Y4094102D1*
X1142178D2*
X1167178Y4119099D1*
X1192178Y4094102D1*
X1242178D2*
X1267178Y4119099D1*
X1292178Y4094102D1*
X1342178D2*
X1367178Y4119099D1*
X967178D2*
Y4269107D1*
X992178Y4294104D1*
X1042178D1*
X1067178Y4269107D1*
X1092178Y4294104D1*
X1142178D1*
X1167178Y4269107D1*
X1192178Y4294104D1*
X1242178D1*
X1267178Y4269107D1*
X1292178Y4294104D1*
X1342178D1*
X1367178Y4269107D1*
X1067178D2*
Y4119099D1*
X1167178Y4269107D2*
Y4119099D1*
X1267178Y4269107D2*
Y4119099D1*
X1367178Y4269107D2*
Y4119099D1*
X1292178Y4094102D2*
X1342178D1*
X1192178D2*
X1242178D1*
X1092178D2*
X1142178D1*
X992178D2*
X1042178D1*
X1367178Y4119099D2*
X1392178Y4094102D1*
X1442178D2*
X1467178Y4119099D1*
X1367178Y4269107D2*
X1392178Y4294104D1*
X1442178D1*
X1467178Y4269107D1*
Y4119099D1*
X1392178Y4094102D2*
X1442178D1*
X992178Y4069104D2*
D14*
X1042178D1*
X1842177Y2637864D2*
X1817177Y2662854D1*
Y2712864D1*
X1842177Y2737854D1*
X1892177D2*
X1917177Y2712864D1*
Y2662854D1*
X1892177Y2637864D1*
X1817177Y2462844D2*
Y2512854D1*
X1842177Y2537844D1*
X1892177D2*
X1917177Y2512854D1*
X1842177Y2537844D2*
X1817177Y2562864D1*
Y2612844D1*
X1842177Y2637864D1*
X1892177D2*
X1917177Y2612844D1*
Y2562864D1*
X1892177Y2537844D1*
X1842177Y2437854D2*
X1892177D1*
X1817177Y2462844D2*
X1842177Y2437854D1*
X1892177D2*
X1917177Y2462844D1*
Y2512854D2*
Y2462844D1*
X1842177Y2737854D2*
X1892177D1*
X1885927Y3137845D2*
X1910927Y3112855D1*
Y3062845D1*
X1885927Y3037855D1*
X1835927D2*
X1810927Y3062845D1*
Y3112855D1*
X1835927Y3137845D1*
X1910927Y3312865D2*
Y3262855D1*
X1885927Y3237865D1*
X1835927D2*
X1810927Y3262855D1*
X1885927Y3237865D2*
X1910927Y3212845D1*
Y3162865D1*
X1885927Y3137845D1*
X1835927D2*
X1810927Y3162865D1*
Y3212845D1*
X1835927Y3237865D1*
X1885927Y3337855D2*
X1835927D1*
X1910927Y3312865D2*
X1885927Y3337855D1*
X1835927D2*
X1810927Y3312865D1*
Y3262855D2*
Y3312865D1*
X1885927Y3037855D2*
X1835927D1*
G36*
X871112Y3041791D2*
X855370D1*
Y3033904D1*
X871112D1*
Y3041791D1*
G37*
X835683Y3053602D2*
D32*
X898670D1*
Y3022106D2*
X835683D1*
X931047Y3689096D2*
D19*
G02X997186Y3724113I66126J-44928D01*
G01*
X907152Y3689096D2*
D18*
Y3729110D1*
X1267170Y3724113D2*
D19*
G02X1333309Y3689096I32J-79908D01*
G01*
X1357204D2*
D18*
Y3729110D1*
X1267170Y3594096D2*
D19*
X997186D1*
X1267170Y3564095D2*
X997186D1*
Y3694112D2*
X1267170D1*
X1347174Y3549104D2*
D18*
X917182D1*
X1347174D2*
G03X1357204Y3559098I32J9998D01*
G01*
Y3599112D1*
X1267170Y3594096D2*
D19*
G03X1289000Y3599112I-73J50328D01*
G01*
X1267170Y3694112D2*
G02X1289000Y3689096I-4J-50027D01*
G01*
X1267170Y3564095D2*
G03X1333309Y3599112I-6J79980D01*
G01*
X931047D2*
G03X997186Y3564095I66154J44981D01*
G01*
X975356Y3599112D2*
G03X997186Y3594096I21763J44703D01*
G01*
X975356Y3689096D2*
G02X997186Y3694112I21951J-45523D01*
G01*
X907152Y3559098D2*
D18*
Y3599112D1*
Y3559098D2*
G03X917182Y3549104I10064J70D01*
G01*
X997186Y3724113D2*
D19*
X1267170D1*
X1347174Y3739104D2*
D18*
X917182D1*
X1347174D2*
G02X1357204Y3729110I-1J-10031D01*
G01*
X907152D2*
G02X917182Y3739104I10031J-37D01*
G01*
X1122207Y3669108D2*
Y3619100D1*
X1142149D1*
Y3669108D1*
X1122207D1*
X1107162D2*
Y3644104D1*
Y3619100D1*
Y3644104D2*
D19*
X1092176D1*
X1157194Y3669108D2*
D18*
Y3644104D1*
Y3619100D1*
Y3644104D2*
D19*
X1172180D1*
X1759799Y4101482D2*
D10*
Y4286530D1*
X1651519D1*
X1649557D2*
Y4101482D1*
X1688920D1*
X1759799D2*
X1720436D1*
G03X1688920Y4101482I-15758J1844D01*
G01*
X694709Y3050265D2*
D66*
X693283Y3053117D1*
X690398Y3056002D1*
X687546Y3057428D1*
X681809D1*
X678924Y3056002D1*
X676072Y3053117D1*
X674613Y3050265D1*
X673187Y3045954D1*
Y3038758D1*
X674613Y3034480D1*
X676072Y3031595D1*
X678924Y3028743D1*
X681809Y3027284D1*
X687546D1*
X690398Y3028743D1*
X693283Y3031595D1*
X694709Y3034480D1*
X703973Y3051658D2*
X706858Y3053117D1*
X711169Y3057395D1*
Y3027284D1*
X1350759Y3825560D2*
X1349333Y3828412D1*
X1346448Y3831297D1*
X1343596Y3832723D1*
X1337859D1*
X1334974Y3831297D1*
X1332122Y3828412D1*
X1330663Y3825560D1*
X1329237Y3821249D1*
Y3814053D1*
X1330663Y3809775D1*
X1332122Y3806890D1*
X1334974Y3804038D1*
X1337859Y3802579D1*
X1343596D1*
X1346448Y3804038D1*
X1349333Y3806890D1*
X1350759Y3809775D1*
X1361482Y3825527D2*
Y3826953D1*
X1362908Y3829838D1*
X1364334Y3831264D1*
X1367219Y3832690D1*
X1372956D1*
X1375808Y3831264D1*
X1377234Y3829838D1*
X1378693Y3826953D1*
Y3824101D1*
X1377234Y3821216D1*
X1374382Y3816938D1*
X1360023Y3802579D1*
X1380119D1*
X1138259Y3538060D2*
X1136833Y3540912D1*
X1133948Y3543797D1*
X1131096Y3545223D1*
X1125359D1*
X1122474Y3543797D1*
X1119622Y3540912D1*
X1118163Y3538060D1*
X1116737Y3533749D1*
Y3526553D1*
X1118163Y3522275D1*
X1119622Y3519390D1*
X1122474Y3516538D1*
X1125359Y3515079D1*
X1131096D1*
X1133948Y3516538D1*
X1136833Y3519390D1*
X1138259Y3522275D1*
X1150408Y3545190D2*
X1166160D1*
X1157571Y3533716D1*
X1161882D1*
X1164734Y3532290D1*
X1166160Y3530864D1*
X1167619Y3526553D1*
Y3523701D1*
X1166160Y3519390D1*
X1163308Y3516505D1*
X1158997Y3515079D1*
X1154686D1*
X1150408Y3516505D1*
X1148982Y3517964D1*
X1147523Y3520816D1*
X1525046Y2019311D2*
X1523620Y2022163D1*
X1520735Y2025048D1*
X1517883Y2026474D1*
X1512146D1*
X1509261Y2025048D1*
X1506409Y2022163D1*
X1504950Y2019311D1*
X1503524Y2015000D1*
Y2007804D1*
X1504950Y2003526D1*
X1506409Y2000641D1*
X1509261Y1997789D1*
X1512146Y1996330D1*
X1517883D1*
X1520735Y1997789D1*
X1523620Y2000641D1*
X1525046Y2003526D1*
X1548669Y1996330D2*
Y2026441D1*
X1534310Y2006378D1*
X1555832D1*
X1200759Y2975560D2*
X1199333Y2978412D1*
X1196448Y2981297D1*
X1193596Y2982723D1*
X1187859D1*
X1184974Y2981297D1*
X1182122Y2978412D1*
X1180663Y2975560D1*
X1179237Y2971249D1*
Y2964053D1*
X1180663Y2959775D1*
X1182122Y2956890D1*
X1184974Y2954038D1*
X1187859Y2952579D1*
X1193596D1*
X1196448Y2954038D1*
X1199333Y2956890D1*
X1200759Y2959775D1*
X1227234Y2982690D2*
X1212908D1*
X1211482Y2969790D1*
X1212908Y2971216D1*
X1217219Y2972675D1*
X1221497D1*
X1225808Y2971216D1*
X1228693Y2968364D1*
X1230119Y2964053D1*
Y2961201D1*
X1228693Y2956890D1*
X1225808Y2954005D1*
X1221497Y2952579D1*
X1217219D1*
X1212908Y2954005D1*
X1211482Y2955464D1*
X1210023Y2958316D1*
X1051489Y2975560D2*
X1050063Y2978412D1*
X1047178Y2981297D1*
X1044326Y2982723D1*
X1038589D1*
X1035704Y2981297D1*
X1032852Y2978412D1*
X1031393Y2975560D1*
X1029967Y2971249D1*
Y2964053D1*
X1031393Y2959775D1*
X1032852Y2956890D1*
X1035704Y2954038D1*
X1038589Y2952579D1*
X1044326D1*
X1047178Y2954038D1*
X1050063Y2956890D1*
X1051489Y2959775D1*
X1077963Y2978412D2*
X1076537Y2981264D1*
X1072226Y2982690D1*
X1069374D1*
X1065063Y2981264D1*
X1062178Y2976953D1*
X1060752Y2969790D1*
Y2962627D1*
X1062178Y2956890D1*
X1065063Y2954005D1*
X1069374Y2952579D1*
X1070800D1*
X1075078Y2954005D1*
X1077963Y2956890D1*
X1079389Y2961201D1*
Y2962627D1*
X1077963Y2966938D1*
X1075078Y2969790D1*
X1070800Y2971216D1*
X1069374D1*
X1065063Y2969790D1*
X1062178Y2966938D1*
X1060752Y2962627D1*
X888259Y3825560D2*
X886833Y3828412D1*
X883948Y3831297D1*
X881096Y3832723D1*
X875359D1*
X872474Y3831297D1*
X869622Y3828412D1*
X868163Y3825560D1*
X866737Y3821249D1*
Y3814053D1*
X868163Y3809775D1*
X869622Y3806890D1*
X872474Y3804038D1*
X875359Y3802579D1*
X881096D1*
X883948Y3804038D1*
X886833Y3806890D1*
X888259Y3809775D1*
X903260Y3802579D2*
X917619Y3832690D1*
X897523D1*
X1485722Y1665202D2*
X1482870Y1663776D1*
X1479985Y1660891D1*
X1478559Y1658039D1*
Y1652302D1*
X1479985Y1649417D1*
X1482870Y1646565D1*
X1485722Y1645106D1*
X1490033Y1643680D1*
X1497229D1*
X1501507Y1645106D1*
X1504392Y1646565D1*
X1507244Y1649417D1*
X1508703Y1652302D1*
Y1658039D1*
X1507244Y1660891D1*
X1504392Y1663776D1*
X1501507Y1665202D1*
X1478592Y1681629D2*
X1480018Y1677351D1*
X1482870Y1675892D1*
X1485755D1*
X1488607Y1677351D1*
X1490066Y1680203D1*
X1491492Y1685940D1*
X1492918Y1690251D1*
X1495803Y1693103D1*
X1498655Y1694529D1*
X1502966D1*
X1505818Y1693103D1*
X1507277Y1691677D1*
X1508703Y1687366D1*
Y1681629D1*
X1507277Y1677351D1*
X1505818Y1675892D1*
X1502966Y1674466D1*
X1498655D1*
X1495803Y1675892D1*
X1492918Y1678777D1*
X1491492Y1683055D1*
X1490066Y1688792D1*
X1488607Y1691677D1*
X1485755Y1693103D1*
X1482870D1*
X1480018Y1691677D1*
X1478592Y1687366D1*
Y1681629D1*
X1398222Y990899D2*
X1395370Y989473D1*
X1392485Y986588D1*
X1391059Y983736D1*
Y977999D1*
X1392485Y975114D1*
X1395370Y972262D1*
X1398222Y970803D1*
X1402533Y969377D1*
X1409729D1*
X1414007Y970803D1*
X1416892Y972262D1*
X1419744Y975114D1*
X1421203Y977999D1*
Y983736D1*
X1419744Y986588D1*
X1416892Y989473D1*
X1414007Y990899D1*
X1401107Y1018832D2*
X1405418Y1017373D1*
X1408303Y1014521D1*
X1409729Y1010210D1*
Y1008784D1*
X1408303Y1004473D1*
X1405418Y1001621D1*
X1401107Y1000162D1*
X1399681D1*
X1395370Y1001621D1*
X1392518Y1004473D1*
X1391092Y1008784D1*
Y1010210D1*
X1392518Y1014521D1*
X1395370Y1017373D1*
X1401107Y1018832D1*
X1408303D1*
X1415466Y1017373D1*
X1419777Y1014521D1*
X1421203Y1010210D1*
Y1007358D1*
X1419777Y1003047D1*
X1416892Y1001621D1*
X1610722Y1156956D2*
X1607870Y1155530D1*
X1604985Y1152645D1*
X1603559Y1149793D1*
Y1144056D1*
X1604985Y1141171D1*
X1607870Y1138319D1*
X1610722Y1136860D1*
X1615033Y1135434D1*
X1622229D1*
X1626507Y1136860D1*
X1629392Y1138319D1*
X1632244Y1141171D1*
X1633703Y1144056D1*
Y1149793D1*
X1632244Y1152645D1*
X1629392Y1155530D1*
X1626507Y1156956D1*
X1609329Y1166219D2*
X1607870Y1169104D1*
X1603592Y1173415D1*
X1633703D1*
X1603592Y1191301D2*
X1605018Y1186990D1*
X1609329Y1184105D1*
X1616492Y1182679D1*
X1620803D1*
X1627966Y1184105D1*
X1632277Y1186990D1*
X1633703Y1191301D1*
Y1194153D1*
X1632277Y1198464D1*
X1627966Y1201316D1*
X1620803Y1202775D1*
X1616492D1*
X1609329Y1201316D1*
X1605018Y1198464D1*
X1603592Y1194153D1*
Y1191301D1*
X1609329Y1201316D2*
X1627966Y1184105D1*
X1011479Y2138060D2*
X1010053Y2140912D1*
X1007168Y2143797D1*
X1004316Y2145223D1*
X998580D1*
X995694Y2143797D1*
X992843Y2140912D1*
X991383Y2138060D1*
X989957Y2133749D1*
Y2126553D1*
X991383Y2122275D1*
X992843Y2119390D1*
X995694Y2116538D1*
X998580Y2115079D1*
X1004316D1*
X1007168Y2116538D1*
X1010053Y2119390D1*
X1011479Y2122275D1*
X1020743Y2139453D2*
X1023628Y2140912D1*
X1027939Y2145190D1*
Y2115079D1*
X1037203Y2139453D2*
X1040088Y2140912D1*
X1044399Y2145190D1*
Y2115079D1*
X1160722Y1656956D2*
X1157870Y1655530D1*
X1154985Y1652645D1*
X1153559Y1649793D1*
Y1644056D1*
X1154985Y1641171D1*
X1157870Y1638319D1*
X1160722Y1636860D1*
X1165033Y1635434D1*
X1172229D1*
X1176507Y1636860D1*
X1179392Y1638319D1*
X1182244Y1641171D1*
X1183703Y1644056D1*
Y1649793D1*
X1182244Y1652645D1*
X1179392Y1655530D1*
X1176507Y1656956D1*
X1159329Y1666219D2*
X1157870Y1669104D1*
X1153592Y1673415D1*
X1183703D1*
X1160755Y1684138D2*
X1159329D1*
X1156444Y1685564D1*
X1155018Y1686990D1*
X1153592Y1689875D1*
Y1695612D1*
X1155018Y1698464D1*
X1156444Y1699890D1*
X1159329Y1701349D1*
X1162181D1*
X1165066Y1699890D1*
X1169344Y1697038D1*
X1183703Y1682679D1*
Y1702775D1*
X1010722Y1481956D2*
X1007870Y1480530D1*
X1004985Y1477645D1*
X1003559Y1474793D1*
Y1469056D1*
X1004985Y1466171D1*
X1007870Y1463319D1*
X1010722Y1461860D1*
X1015033Y1460434D1*
X1022229D1*
X1026507Y1461860D1*
X1029392Y1463319D1*
X1032244Y1466171D1*
X1033703Y1469056D1*
Y1474793D1*
X1032244Y1477645D1*
X1029392Y1480530D1*
X1026507Y1481956D1*
X1009329Y1491219D2*
X1007870Y1494104D1*
X1003592Y1498415D1*
X1033703D1*
X1003592Y1510564D2*
Y1526316D1*
X1015066Y1517727D1*
Y1522038D1*
X1016492Y1524890D1*
X1017918Y1526316D1*
X1022229Y1527775D1*
X1025081D1*
X1029392Y1526316D1*
X1032277Y1523464D1*
X1033703Y1519153D1*
Y1514842D1*
X1032277Y1510564D1*
X1030818Y1509138D1*
X1027966Y1507679D1*
X735722Y1656243D2*
X732870Y1654817D1*
X729985Y1651932D1*
X728559Y1649080D1*
Y1643343D1*
X729985Y1640458D1*
X732870Y1637606D1*
X735722Y1636147D1*
X740033Y1634721D1*
X747229D1*
X751507Y1636147D1*
X754392Y1637606D1*
X757244Y1640458D1*
X758703Y1643343D1*
Y1649080D1*
X757244Y1651932D1*
X754392Y1654817D1*
X751507Y1656243D1*
X734329Y1665506D2*
X732870Y1668391D1*
X728592Y1672702D1*
X758703D1*
Y1696325D2*
X728592D1*
X748655Y1681966D1*
Y1703488D1*
X1535722Y681956D2*
X1532870Y680530D1*
X1529985Y677645D1*
X1528559Y674793D1*
Y669056D1*
X1529985Y666171D1*
X1532870Y663319D1*
X1535722Y661860D1*
X1540033Y660434D1*
X1547229D1*
X1551507Y661860D1*
X1554392Y663319D1*
X1557244Y666171D1*
X1558703Y669056D1*
Y674793D1*
X1557244Y677645D1*
X1554392Y680530D1*
X1551507Y681956D1*
X1534329Y691219D2*
X1532870Y694104D1*
X1528592Y698415D1*
X1558703D1*
X1528592Y724890D2*
Y710564D1*
X1541492Y709138D1*
X1540066Y710564D1*
X1538607Y714875D1*
Y719153D1*
X1540066Y723464D1*
X1542918Y726349D1*
X1547229Y727775D1*
X1550081D1*
X1554392Y726349D1*
X1557277Y723464D1*
X1558703Y719153D1*
Y714875D1*
X1557277Y710564D1*
X1555818Y709138D1*
X1552966Y707679D1*
X910722Y1107685D2*
X907870Y1106259D1*
X904985Y1103374D1*
X903559Y1100522D1*
Y1094786D1*
X904985Y1091900D1*
X907870Y1089049D1*
X910722Y1087589D1*
X915033Y1086163D1*
X922229D1*
X926507Y1087589D1*
X929392Y1089049D1*
X932244Y1091900D1*
X933703Y1094785D1*
Y1100522D1*
X932244Y1103374D1*
X929392Y1106259D1*
X926507Y1107685D1*
X909329Y1116949D2*
X907870Y1119834D1*
X903592Y1124145D1*
X933703D1*
X907870Y1150619D2*
X905018Y1149193D1*
X903592Y1144882D1*
Y1142031D1*
X905018Y1137720D1*
X909329Y1134834D1*
X916492Y1133409D1*
X923655D1*
X929392Y1134834D1*
X932277Y1137720D1*
X933703Y1142031D1*
Y1143456D1*
X932277Y1147734D1*
X929392Y1150619D1*
X925081Y1152045D1*
X923655D1*
X919344Y1150619D1*
X916492Y1147734D1*
X915066Y1143457D1*
Y1142031D1*
X916492Y1137720D1*
X919344Y1134834D1*
X923655Y1133409D1*
X610722Y1106956D2*
X607870Y1105530D1*
X604985Y1102645D1*
X603559Y1099793D1*
Y1094056D1*
X604985Y1091171D1*
X607870Y1088319D1*
X610722Y1086860D1*
X615033Y1085434D1*
X622229D1*
X626507Y1086860D1*
X629392Y1088319D1*
X632244Y1091171D1*
X633703Y1094056D1*
Y1099793D1*
X632244Y1102645D1*
X629392Y1105530D1*
X626507Y1106956D1*
X609329Y1116219D2*
X607870Y1119104D1*
X603592Y1123415D1*
X633703D1*
Y1138416D2*
X603592Y1152775D1*
Y1132679D1*
X610722Y1481972D2*
X607870Y1480546D1*
X604985Y1477661D1*
X603559Y1474810D1*
Y1469073D1*
X604985Y1466187D1*
X607870Y1463336D1*
X610722Y1461876D1*
X615033Y1460450D1*
X622229D1*
X626507Y1461876D1*
X629392Y1463336D1*
X632244Y1466187D1*
X633703Y1469072D1*
Y1474809D1*
X632244Y1477661D1*
X629392Y1480546D1*
X626507Y1481972D1*
X609329Y1491236D2*
X607870Y1494121D1*
X603592Y1498432D1*
X633703D1*
X603592Y1514858D2*
X605018Y1510581D1*
X607870Y1509122D1*
X610755D1*
X613607Y1510581D1*
X615066Y1513433D1*
X616492Y1519169D1*
X617918Y1523481D1*
X620803Y1526332D1*
X623655Y1527758D1*
X627966D1*
X630818Y1526332D1*
X632277Y1524906D1*
X633703Y1520595D1*
Y1514858D1*
X632277Y1510581D1*
X630818Y1509121D1*
X627966Y1507696D1*
X623655D1*
X620803Y1509121D1*
X617918Y1512007D1*
X616492Y1516284D1*
X615066Y1522021D1*
X613607Y1524906D1*
X610755Y1526332D1*
X607870D1*
X605018Y1524906D1*
X603592Y1520595D1*
Y1514858D1*
X1555742Y3006516D2*
X1554316Y3009368D1*
X1551431Y3012253D1*
X1548580Y3013679D1*
X1542843D1*
X1539957Y3012253D1*
X1537106Y3009368D1*
X1535646Y3006516D1*
X1534220Y3002205D1*
Y2995009D1*
X1535646Y2990731D1*
X1537106Y2987846D1*
X1539957Y2984994D1*
X1542843Y2983535D1*
X1548580D1*
X1551431Y2984994D1*
X1554316Y2987846D1*
X1555742Y2990731D1*
X1565006Y3007908D2*
X1567891Y3009368D1*
X1572202Y3013645D1*
Y2983535D1*
X1600136Y3003631D2*
X1598677Y2999320D1*
X1595825Y2996435D1*
X1591514Y2995009D1*
X1590088D1*
X1585777Y2996435D1*
X1582925Y2999320D1*
X1581466Y3003631D1*
Y3005057D1*
X1582925Y3009368D1*
X1585777Y3012220D1*
X1590088Y3013645D1*
X1591514D1*
X1595825Y3012220D1*
X1598677Y3009368D1*
X1600136Y3003631D1*
Y2996435D1*
X1598677Y2989272D1*
X1595825Y2984961D1*
X1591514Y2983535D1*
X1588662D1*
X1584351Y2984961D1*
X1582925Y2987846D1*
X1108319Y3438038D2*
Y3407894D1*
X1139105Y3430875D2*
X1137679Y3433727D1*
X1134794Y3436612D1*
X1131942Y3438038D1*
X1126205D1*
X1123320Y3436612D1*
X1120468Y3433727D1*
X1119009Y3430875D1*
X1117583Y3426564D1*
Y3419368D1*
X1119009Y3415090D1*
X1120468Y3412205D1*
X1123320Y3409353D1*
X1126205Y3407894D1*
X1131942D1*
X1134794Y3409353D1*
X1137679Y3412205D1*
X1139105Y3415090D1*
X1148368Y3432268D2*
X1151253Y3433727D1*
X1155564Y3438005D1*
Y3407894D1*
X1662106Y1791109D2*
Y1760965D1*
X1692891Y1783946D2*
X1691465Y1786798D1*
X1688580Y1789683D1*
X1685728Y1791109D1*
X1679991D1*
X1677106Y1789683D1*
X1674254Y1786798D1*
X1672795Y1783946D1*
X1671369Y1779635D1*
Y1772439D1*
X1672795Y1768161D1*
X1674254Y1765276D1*
X1677106Y1762424D1*
X1679991Y1760965D1*
X1685728D1*
X1688580Y1762424D1*
X1691465Y1765276D1*
X1692891Y1768161D1*
X1703614Y1783913D2*
Y1785339D1*
X1705040Y1788224D1*
X1706466Y1789650D1*
X1709351Y1791076D1*
X1715088D1*
X1717940Y1789650D1*
X1719366Y1788224D1*
X1720825Y1785339D1*
Y1782487D1*
X1719366Y1779602D1*
X1716514Y1775324D1*
X1702155Y1760965D1*
X1722251D1*
X1574606Y1111070D2*
Y1080926D1*
X1605391Y1103907D2*
X1603965Y1106759D1*
X1601080Y1109644D1*
X1598228Y1111070D1*
X1592491D1*
X1589606Y1109644D1*
X1586754Y1106759D1*
X1585295Y1103907D1*
X1583869Y1099596D1*
Y1092400D1*
X1585295Y1088122D1*
X1586754Y1085237D1*
X1589606Y1082385D1*
X1592491Y1080926D1*
X1598228D1*
X1601080Y1082385D1*
X1603965Y1085237D1*
X1605391Y1088122D1*
X1617540Y1111037D2*
X1633291D1*
X1624703Y1099563D1*
X1629014D1*
X1631866Y1098137D1*
X1633291Y1096711D1*
X1634751Y1092400D1*
Y1089548D1*
X1633291Y1085237D1*
X1630440Y1082352D1*
X1626129Y1080926D1*
X1621818D1*
X1617540Y1082352D1*
X1616114Y1083811D1*
X1614655Y1086663D1*
X1173893Y1586070D2*
Y1555926D1*
X1204678Y1578907D2*
X1203252Y1581759D1*
X1200367Y1584644D1*
X1197515Y1586070D1*
X1191778D1*
X1188893Y1584644D1*
X1186041Y1581759D1*
X1184582Y1578907D1*
X1183156Y1574596D1*
Y1567400D1*
X1184582Y1563122D1*
X1186041Y1560237D1*
X1188893Y1557385D1*
X1191778Y1555926D1*
X1197515D1*
X1200367Y1557385D1*
X1203252Y1560237D1*
X1204678Y1563122D1*
X1228301Y1555926D2*
Y1586037D1*
X1213942Y1565974D1*
X1235464D1*
X774606Y1586070D2*
Y1555926D1*
X805391Y1578907D2*
X803965Y1581759D1*
X801080Y1584644D1*
X798228Y1586070D1*
X792491D1*
X789606Y1584644D1*
X786754Y1581759D1*
X785295Y1578907D1*
X783869Y1574596D1*
Y1567400D1*
X785295Y1563122D1*
X786754Y1560237D1*
X789606Y1557385D1*
X792491Y1555926D1*
X798228D1*
X801080Y1557385D1*
X803965Y1560237D1*
X805391Y1563122D1*
X831866Y1586037D2*
X817540D1*
X816114Y1573137D1*
X817540Y1574563D1*
X821851Y1576022D1*
X826129D1*
X830440Y1574563D1*
X833325Y1571711D1*
X834751Y1567400D1*
Y1564548D1*
X833325Y1560237D1*
X830440Y1557352D1*
X826129Y1555926D1*
X821851D1*
X817540Y1557352D1*
X816114Y1558811D1*
X814655Y1561663D1*
X1091835Y2588038D2*
Y2557894D1*
X1122621Y2580875D2*
X1121195Y2583727D1*
X1118310Y2586612D1*
X1115458Y2588038D1*
X1109721D1*
X1106836Y2586612D1*
X1103984Y2583727D1*
X1102525Y2580875D1*
X1101099Y2576564D1*
Y2569368D1*
X1102525Y2565090D1*
X1103984Y2562205D1*
X1106836Y2559353D1*
X1109721Y2557894D1*
X1115458D1*
X1118310Y2559353D1*
X1121195Y2562205D1*
X1122621Y2565090D1*
X1149095Y2583727D2*
X1147669Y2586579D1*
X1143358Y2588005D1*
X1140506D1*
X1136195Y2586579D1*
X1133310Y2582268D1*
X1131884Y2575105D1*
Y2567942D1*
X1133310Y2562205D1*
X1136195Y2559320D1*
X1140506Y2557894D1*
X1141932D1*
X1146210Y2559320D1*
X1149095Y2562205D1*
X1150521Y2566516D1*
Y2567942D1*
X1149095Y2572253D1*
X1146210Y2575105D1*
X1141932Y2576531D1*
X1140506D1*
X1136195Y2575105D1*
X1133310Y2572253D1*
X1131884Y2567942D1*
X1537106Y2501538D2*
Y2471394D1*
X1567891Y2494375D2*
X1566465Y2497227D1*
X1563580Y2500112D1*
X1560728Y2501538D1*
X1554991D1*
X1552106Y2500112D1*
X1549254Y2497227D1*
X1547795Y2494375D1*
X1546369Y2490064D1*
Y2482868D1*
X1547795Y2478590D1*
X1549254Y2475705D1*
X1552106Y2472853D1*
X1554991Y2471394D1*
X1560728D1*
X1563580Y2472853D1*
X1566465Y2475705D1*
X1567891Y2478590D1*
X1582892Y2471394D2*
X1597251Y2501505D1*
X1577155D1*
X1126448Y2888038D2*
Y2865090D1*
X1125022Y2860779D1*
X1123563Y2859353D1*
X1120711Y2857894D1*
X1117826D1*
X1114974Y2859353D1*
X1113548Y2860779D1*
X1112089Y2865090D1*
Y2867942D1*
X1135712Y2882268D2*
X1138597Y2883727D1*
X1142908Y2888005D1*
Y2857894D1*
X1169382Y2888005D2*
X1155056D1*
X1153630Y2875105D1*
X1155056Y2876531D1*
X1159367Y2877990D1*
X1163645D1*
X1167956Y2876531D1*
X1170841Y2873679D1*
X1172267Y2869368D1*
Y2866516D1*
X1170841Y2862205D1*
X1167956Y2859320D1*
X1163645Y2857894D1*
X1159367D1*
X1155056Y2859320D1*
X1153630Y2860779D1*
X1152171Y2863631D1*
X1202178Y4338038D2*
Y4315090D1*
X1200752Y4310779D1*
X1199292Y4309353D1*
X1196441Y4307894D1*
X1193556D1*
X1190704Y4309353D1*
X1189278Y4310779D1*
X1187819Y4315090D1*
Y4317942D1*
X1211441Y4332268D2*
X1214326Y4333727D1*
X1218637Y4338005D1*
Y4307894D1*
X1245112Y4333727D2*
X1243686Y4336579D1*
X1239375Y4338005D1*
X1236523D1*
X1232212Y4336579D1*
X1229327Y4332268D1*
X1227901Y4325105D1*
Y4317942D1*
X1229327Y4312205D1*
X1232212Y4309320D1*
X1236523Y4307894D1*
X1237949D1*
X1242227Y4309320D1*
X1245112Y4312205D1*
X1246538Y4316516D1*
Y4317942D1*
X1245112Y4322253D1*
X1242227Y4325105D1*
X1237949Y4326531D1*
X1236523D1*
X1232212Y4325105D1*
X1229327Y4322253D1*
X1227901Y4317942D1*
X1773243Y2572124D2*
X1796191D1*
X1800502Y2570698D1*
X1801928Y2569239D1*
X1803387Y2566387D1*
Y2563502D1*
X1801928Y2560650D1*
X1800502Y2559224D1*
X1796191Y2557765D1*
X1793339D1*
X1789028Y2581387D2*
Y2594320D1*
X1787602Y2598598D1*
X1786143Y2600057D1*
X1783291Y2601483D1*
X1778980D1*
X1776128Y2600057D1*
X1774669Y2598598D1*
X1773243Y2594320D1*
Y2581387D1*
X1803387D1*
X1779013Y2610747D2*
X1777554Y2613632D1*
X1773276Y2617943D1*
X1803387D1*
X1766994Y3165675D2*
X1789942D1*
X1794253Y3164249D1*
X1795679Y3162790D1*
X1797138Y3159938D1*
Y3157053D1*
X1795678Y3154201D1*
X1794253Y3152775D1*
X1789941Y3151316D1*
X1787090D1*
X1782779Y3174939D2*
Y3187872D1*
X1781353Y3192149D1*
X1779894Y3193609D1*
X1777042Y3195035D1*
X1772731D1*
X1769879Y3193609D1*
X1768420Y3192150D1*
X1766994Y3187872D1*
Y3174939D1*
X1797138D1*
X1774190Y3205757D2*
X1772764D1*
X1769879Y3207183D1*
X1768453Y3208609D1*
X1767027Y3211494D1*
Y3217231D1*
X1768453Y3220083D1*
X1769879Y3221509D1*
X1772764Y3222968D1*
X1775616D1*
X1778501Y3221509D1*
X1782779Y3218657D1*
X1797138Y3204298D1*
Y3224394D1*
X846406Y3097536D2*
Y3067392D1*
X863617D1*
X872880Y3091765D2*
X875765Y3093225D1*
X880076Y3097502D1*
Y3067392D1*
X1121080Y3783038D2*
X1118228Y3781645D1*
X1115343Y3778760D1*
X1113917Y3775875D1*
X1112458Y3771564D1*
Y3764401D1*
X1113917Y3760090D1*
X1115343Y3757238D1*
X1118228Y3754353D1*
X1121080Y3752927D1*
X1126817D1*
X1129702Y3754353D1*
X1132554Y3757238D1*
X1133980Y3760090D1*
X1135439Y3764401D1*
Y3771564D1*
X1133980Y3775875D1*
X1132554Y3778760D1*
X1129702Y3781645D1*
X1126817Y3783038D1*
X1121080D1*
X1125391Y3758664D2*
X1133980Y3750042D1*
X1144702Y3777268D2*
X1147587Y3778727D1*
X1151898Y3783005D1*
Y3752894D1*
X1599630Y3470125D2*
X1596778Y3468732D1*
X1593893Y3465847D1*
X1592467Y3462962D1*
X1591008Y3458651D1*
Y3451488D1*
X1592467Y3447177D1*
X1593893Y3444325D1*
X1596778Y3441440D1*
X1599630Y3440014D1*
X1605367D1*
X1608252Y3441440D1*
X1611104Y3444325D1*
X1612530Y3447177D1*
X1613989Y3451488D1*
Y3458651D1*
X1612530Y3462962D1*
X1611104Y3465847D1*
X1608252Y3468732D1*
X1605367Y3470125D1*
X1599630D1*
X1603941Y3445751D2*
X1612530Y3437129D1*
X1624711Y3462929D2*
Y3464355D1*
X1626137Y3467240D1*
X1627563Y3468666D1*
X1630448Y3470092D1*
X1636185D1*
X1639037Y3468666D1*
X1640463Y3467240D1*
X1641922Y3464355D1*
Y3461503D1*
X1640463Y3458618D1*
X1637611Y3454340D1*
X1623252Y3439981D1*
X1643348D1*
X1649630Y3745125D2*
X1646778Y3743732D1*
X1643893Y3740847D1*
X1642467Y3737962D1*
X1641008Y3733651D1*
Y3726488D1*
X1642467Y3722177D1*
X1643893Y3719325D1*
X1646778Y3716440D1*
X1649630Y3715014D1*
X1655367D1*
X1658252Y3716440D1*
X1661104Y3719325D1*
X1662530Y3722177D1*
X1663989Y3726488D1*
Y3733651D1*
X1662530Y3737962D1*
X1661104Y3740847D1*
X1658252Y3743732D1*
X1655367Y3745125D1*
X1649630D1*
X1653941Y3720751D2*
X1662530Y3712129D1*
X1676137Y3745092D2*
X1691889D1*
X1683300Y3733618D1*
X1687611D1*
X1690463Y3732192D1*
X1691889Y3730766D1*
X1693348Y3726455D1*
Y3723603D1*
X1691889Y3719292D1*
X1689037Y3716407D1*
X1684726Y3714981D1*
X1680415D1*
X1676137Y3716407D1*
X1674711Y3717866D1*
X1673252Y3720718D1*
X1317918Y2706877D2*
Y2719777D1*
X1316459Y2724088D1*
X1315033Y2725547D1*
X1312181Y2726973D1*
X1309296D1*
X1306444Y2725547D1*
X1304985Y2724088D1*
X1303559Y2719777D1*
Y2706877D1*
X1333703D1*
X1317918Y2716925D2*
X1333703Y2726973D1*
X1303592Y2739121D2*
Y2754873D1*
X1315066Y2746284D1*
Y2750595D1*
X1316492Y2753447D1*
X1317918Y2754873D1*
X1322229Y2756332D1*
X1325081D1*
X1329392Y2754873D1*
X1332277Y2752021D1*
X1333703Y2747710D1*
Y2743399D1*
X1332277Y2739121D1*
X1330818Y2737695D1*
X1327966Y2736236D1*
X1379237Y4643364D2*
X1392137D1*
X1396448Y4644823D1*
X1397907Y4646249D1*
X1399333Y4649101D1*
Y4651986D1*
X1397907Y4654838D1*
X1396448Y4656297D1*
X1392137Y4657723D1*
X1379237D1*
Y4627579D1*
X1389285Y4643364D2*
X1399333Y4627579D1*
X1422956D2*
Y4657690D1*
X1408597Y4637627D1*
X1430119D1*
X1492918Y3595106D2*
Y3608006D1*
X1491459Y3612317D1*
X1490033Y3613776D1*
X1487181Y3615202D1*
X1484296D1*
X1481444Y3613776D1*
X1479985Y3612317D1*
X1478559Y3608006D1*
Y3595106D1*
X1508703D1*
X1492918Y3605154D2*
X1508703Y3615202D1*
X1482870Y3641677D2*
X1480018Y3640251D1*
X1478592Y3635940D1*
Y3633088D1*
X1480018Y3628777D1*
X1484329Y3625892D1*
X1491492Y3624466D1*
X1498655D1*
X1504392Y3625892D1*
X1507277Y3628777D1*
X1508703Y3633088D1*
Y3634514D1*
X1507277Y3638792D1*
X1504392Y3641677D1*
X1500081Y3643103D1*
X1498655D1*
X1494344Y3641677D1*
X1491492Y3638792D1*
X1490066Y3634514D1*
Y3633088D1*
X1491492Y3628777D1*
X1494344Y3625892D1*
X1498655Y3624466D1*
X1417918Y3331877D2*
Y3344777D1*
X1416459Y3349088D1*
X1415033Y3350547D1*
X1412181Y3351973D1*
X1409296D1*
X1406444Y3350547D1*
X1404985Y3349088D1*
X1403559Y3344777D1*
Y3331877D1*
X1433703D1*
X1417918Y3341925D2*
X1433703Y3351973D1*
Y3366973D2*
X1403592Y3381332D1*
Y3361236D1*
X1792918Y1644393D2*
Y1657293D1*
X1791459Y1661604D1*
X1790033Y1663063D1*
X1787181Y1664489D1*
X1784296D1*
X1781444Y1663063D1*
X1779985Y1661604D1*
X1778559Y1657293D1*
Y1644393D1*
X1808703D1*
X1792918Y1654441D2*
X1808703Y1664489D1*
X1778592Y1680916D2*
X1780018Y1676638D1*
X1782870Y1675179D1*
X1785755D1*
X1788607Y1676638D1*
X1790066Y1679490D1*
X1791492Y1685227D1*
X1792918Y1689538D1*
X1795803Y1692390D1*
X1798655Y1693816D1*
X1802966D1*
X1805818Y1692390D1*
X1807277Y1690964D1*
X1808703Y1686653D1*
Y1680916D1*
X1807277Y1676638D1*
X1805818Y1675179D1*
X1802966Y1673753D1*
X1798655D1*
X1795803Y1675179D1*
X1792918Y1678064D1*
X1791492Y1682342D1*
X1790066Y1688079D1*
X1788607Y1690964D1*
X1785755Y1692390D1*
X1782870D1*
X1780018Y1690964D1*
X1778592Y1686653D1*
Y1680916D1*
X1817918Y3538840D2*
Y3551740D1*
X1816459Y3556051D1*
X1815033Y3557510D1*
X1812181Y3558936D1*
X1809296D1*
X1806444Y3557510D1*
X1804985Y3556051D1*
X1803559Y3551740D1*
Y3538840D1*
X1833703D1*
X1817918Y3548888D2*
X1833703Y3558936D1*
X1813607Y3586870D2*
X1817918Y3585411D1*
X1820803Y3582559D1*
X1822229Y3578248D1*
Y3576822D1*
X1820803Y3572511D1*
X1817918Y3569659D1*
X1813607Y3568200D1*
X1812181D1*
X1807870Y3569659D1*
X1805018Y3572511D1*
X1803592Y3576822D1*
Y3578248D1*
X1805018Y3582559D1*
X1807870Y3585411D1*
X1813607Y3586870D1*
X1820803D1*
X1827966Y3585411D1*
X1832277Y3582559D1*
X1833703Y3578248D1*
Y3575396D1*
X1832277Y3571085D1*
X1829392Y3569659D1*
X1817918Y3386147D2*
Y3399047D1*
X1816459Y3403358D1*
X1815033Y3404817D1*
X1812181Y3406243D1*
X1809296D1*
X1806444Y3404817D1*
X1804985Y3403358D1*
X1803559Y3399047D1*
Y3386147D1*
X1833703D1*
X1817918Y3396195D2*
X1833703Y3406243D1*
X1809329Y3415506D2*
X1807870Y3418391D1*
X1803592Y3422702D1*
X1833703D1*
X1803592Y3440588D2*
X1805018Y3436277D1*
X1809329Y3433392D1*
X1816492Y3431966D1*
X1820803D1*
X1827966Y3433392D1*
X1832277Y3436277D1*
X1833703Y3440588D1*
Y3443440D1*
X1832277Y3447751D1*
X1827966Y3450603D1*
X1820803Y3452062D1*
X1816492D1*
X1809329Y3450603D1*
X1805018Y3447751D1*
X1803592Y3443440D1*
Y3440588D1*
X1809329Y3450603D2*
X1827966Y3433392D1*
X1817918Y3817597D2*
Y3830497D1*
X1816459Y3834808D1*
X1815033Y3836267D1*
X1812181Y3837693D1*
X1809296D1*
X1806444Y3836267D1*
X1804985Y3834808D1*
X1803559Y3830497D1*
Y3817597D1*
X1833703D1*
X1817918Y3827645D2*
X1833703Y3837693D1*
X1809329Y3846956D2*
X1807870Y3849841D1*
X1803592Y3854152D1*
X1833703D1*
X1809329Y3863416D2*
X1807870Y3866301D1*
X1803592Y3870612D1*
X1833703D1*
X1817918Y3661147D2*
Y3674047D1*
X1816459Y3678358D1*
X1815033Y3679817D1*
X1812181Y3681243D1*
X1809296D1*
X1806444Y3679817D1*
X1804985Y3678358D1*
X1803559Y3674047D1*
Y3661147D1*
X1833703D1*
X1817918Y3671195D2*
X1833703Y3681243D1*
X1809329Y3690506D2*
X1807870Y3693391D1*
X1803592Y3697702D1*
X1833703D1*
X1810755Y3708425D2*
X1809329D1*
X1806444Y3709851D1*
X1805018Y3711277D1*
X1803592Y3714162D1*
Y3719899D1*
X1805018Y3722751D1*
X1806444Y3724177D1*
X1809329Y3725636D1*
X1812181D1*
X1815066Y3724177D1*
X1819344Y3721325D1*
X1833703Y3706966D1*
Y3727062D1*
X1517918Y1136147D2*
Y1149047D1*
X1516459Y1153358D1*
X1515033Y1154817D1*
X1512181Y1156243D1*
X1509296D1*
X1506444Y1154817D1*
X1504985Y1153358D1*
X1503559Y1149047D1*
Y1136147D1*
X1533703D1*
X1517918Y1146195D2*
X1533703Y1156243D1*
X1509329Y1165506D2*
X1507870Y1168391D1*
X1503592Y1172702D1*
X1533703D1*
X1503592Y1184851D2*
Y1200603D1*
X1515066Y1192014D1*
Y1196325D1*
X1516492Y1199177D1*
X1517918Y1200603D1*
X1522229Y1202062D1*
X1525081D1*
X1529392Y1200603D1*
X1532277Y1197751D1*
X1533703Y1193440D1*
Y1189129D1*
X1532277Y1184851D1*
X1530818Y1183425D1*
X1527966Y1181966D1*
X1717918Y1135434D2*
Y1148334D1*
X1716459Y1152645D1*
X1715033Y1154104D1*
X1712181Y1155530D1*
X1709296D1*
X1706444Y1154104D1*
X1704985Y1152645D1*
X1703559Y1148334D1*
Y1135434D1*
X1733703D1*
X1717918Y1145482D2*
X1733703Y1155530D1*
X1709329Y1164793D2*
X1707870Y1167678D1*
X1703592Y1171989D1*
X1733703D1*
Y1195612D2*
X1703592D1*
X1723655Y1181253D1*
Y1202775D1*
X1817918Y1136147D2*
Y1149047D1*
X1816459Y1153358D1*
X1815033Y1154817D1*
X1812181Y1156243D1*
X1809296D1*
X1806444Y1154817D1*
X1804985Y1153358D1*
X1803559Y1149047D1*
Y1136147D1*
X1833703D1*
X1817918Y1146195D2*
X1833703Y1156243D1*
X1809329Y1165506D2*
X1807870Y1168391D1*
X1803592Y1172702D1*
X1833703D1*
X1803592Y1199177D2*
Y1184851D1*
X1816492Y1183425D1*
X1815066Y1184851D1*
X1813607Y1189162D1*
Y1193440D1*
X1815066Y1197751D1*
X1817918Y1200636D1*
X1822229Y1202062D1*
X1825081D1*
X1829392Y1200636D1*
X1832277Y1197751D1*
X1833703Y1193440D1*
Y1189162D1*
X1832277Y1184851D1*
X1830818Y1183425D1*
X1827966Y1181966D1*
X1267918Y1636876D2*
Y1649776D1*
X1266459Y1654087D1*
X1265033Y1655546D1*
X1262181Y1656972D1*
X1259296D1*
X1256444Y1655546D1*
X1254985Y1654087D1*
X1253559Y1649776D1*
Y1636876D1*
X1283703D1*
X1267918Y1646924D2*
X1283703Y1656972D1*
X1259329Y1666236D2*
X1257870Y1669121D1*
X1253592Y1673432D1*
X1283703D1*
X1257870Y1699906D2*
X1255018Y1698481D1*
X1253592Y1694170D1*
Y1691318D1*
X1255018Y1687007D1*
X1259329Y1684122D1*
X1266492Y1682696D1*
X1273655D1*
X1279392Y1684121D1*
X1282277Y1687007D1*
X1283703Y1691318D1*
Y1692744D1*
X1282277Y1697021D1*
X1279392Y1699906D1*
X1275081Y1701332D1*
X1273655D1*
X1269344Y1699906D1*
X1266492Y1697021D1*
X1265066Y1692744D1*
Y1691318D1*
X1266492Y1687007D1*
X1269344Y1684121D1*
X1273655Y1682696D1*
X967918Y1636147D2*
Y1649047D1*
X966459Y1653358D1*
X965033Y1654817D1*
X962181Y1656243D1*
X959296D1*
X956444Y1654817D1*
X954985Y1653358D1*
X953559Y1649047D1*
Y1636147D1*
X983703D1*
X967918Y1646195D2*
X983703Y1656243D1*
X959329Y1665506D2*
X957870Y1668391D1*
X953592Y1672702D1*
X983703D1*
Y1687703D2*
X953592Y1702062D1*
Y1681966D1*
X1067918Y1636163D2*
Y1649063D1*
X1066459Y1653374D1*
X1065033Y1654833D1*
X1062181Y1656259D1*
X1059296D1*
X1056444Y1654833D1*
X1054985Y1653374D1*
X1053559Y1649063D1*
Y1636163D1*
X1083703D1*
X1067918Y1646211D2*
X1083703Y1656259D1*
X1059329Y1665523D2*
X1057870Y1668408D1*
X1053592Y1672719D1*
X1083703D1*
X1053592Y1689146D2*
X1055018Y1684868D1*
X1057870Y1683409D1*
X1060755D1*
X1063607Y1684868D1*
X1065066Y1687720D1*
X1066492Y1693457D1*
X1067918Y1697768D1*
X1070803Y1700619D1*
X1073655Y1702045D1*
X1077966D1*
X1080818Y1700619D1*
X1082277Y1699193D1*
X1083703Y1694882D1*
Y1689145D1*
X1082277Y1684868D1*
X1080818Y1683408D1*
X1077966Y1681983D1*
X1073655D1*
X1070803Y1683409D1*
X1067918Y1686294D1*
X1066492Y1690571D1*
X1065066Y1696308D1*
X1063607Y1699193D1*
X1060755Y1700619D1*
X1057870D1*
X1055018Y1699193D1*
X1053592Y1694882D1*
Y1689146D1*
X642918Y1636860D2*
Y1649760D1*
X641459Y1654071D1*
X640033Y1655530D1*
X637181Y1656956D1*
X634296D1*
X631444Y1655530D1*
X629985Y1654071D1*
X628559Y1649760D1*
Y1636860D1*
X658703D1*
X642918Y1646908D2*
X658703Y1656956D1*
X634329Y1666219D2*
X632870Y1669104D1*
X628592Y1673415D1*
X658703D1*
X638607Y1701349D2*
X642918Y1699890D1*
X645803Y1697038D1*
X647229Y1692727D1*
Y1691301D1*
X645803Y1686990D1*
X642918Y1684138D1*
X638607Y1682679D1*
X637181D1*
X632870Y1684138D1*
X630018Y1686990D1*
X628592Y1691301D1*
Y1692727D1*
X630018Y1697038D1*
X632870Y1699890D1*
X638607Y1701349D1*
X645803D1*
X652966Y1699890D1*
X657277Y1697038D1*
X658703Y1692727D1*
Y1689875D1*
X657277Y1685564D1*
X654392Y1684138D1*
X442918Y1629697D2*
Y1642597D1*
X441459Y1646908D1*
X440033Y1648367D1*
X437181Y1649793D1*
X434296D1*
X431444Y1648367D1*
X429985Y1646908D1*
X428559Y1642597D1*
Y1629697D1*
X458703D1*
X442918Y1639745D2*
X458703Y1649793D1*
X435755Y1660516D2*
X434329D1*
X431444Y1661941D1*
X430018Y1663367D1*
X428592Y1666253D1*
Y1671989D1*
X430018Y1674841D1*
X431444Y1676267D1*
X434329Y1677726D1*
X437181D1*
X440066Y1676267D1*
X444344Y1673415D1*
X458703Y1659056D1*
Y1679152D1*
X428592Y1697038D2*
X430018Y1692727D1*
X434329Y1689842D1*
X441492Y1688416D1*
X445803D1*
X452966Y1689842D1*
X457277Y1692727D1*
X458703Y1697038D1*
Y1699890D1*
X457277Y1704201D1*
X452966Y1707053D1*
X445803Y1708512D1*
X441492D1*
X434329Y1707053D1*
X430018Y1704201D1*
X428592Y1699890D1*
Y1697038D1*
X434329Y1707053D2*
X452966Y1689842D1*
X542918Y1636147D2*
Y1649047D1*
X541459Y1653358D1*
X540033Y1654817D1*
X537181Y1656243D1*
X534296D1*
X531444Y1654817D1*
X529985Y1653358D1*
X528559Y1649047D1*
Y1636147D1*
X558703D1*
X542918Y1646195D2*
X558703Y1656243D1*
X535755Y1666965D2*
X534329D1*
X531444Y1668391D1*
X530018Y1669817D1*
X528592Y1672702D1*
Y1678439D1*
X530018Y1681291D1*
X531444Y1682717D1*
X534329Y1684176D1*
X537181D1*
X540066Y1682717D1*
X544344Y1679865D1*
X558703Y1665506D1*
Y1685602D1*
X534329Y1694866D2*
X532870Y1697751D1*
X528592Y1702062D1*
X558703D1*
X1417918Y1129697D2*
Y1142597D1*
X1416459Y1146908D1*
X1415033Y1148367D1*
X1412181Y1149793D1*
X1409296D1*
X1406444Y1148367D1*
X1404985Y1146908D1*
X1403559Y1142597D1*
Y1129697D1*
X1433703D1*
X1417918Y1139745D2*
X1433703Y1149793D1*
X1410755Y1160516D2*
X1409329D1*
X1406444Y1161941D1*
X1405018Y1163367D1*
X1403592Y1166253D1*
Y1171989D1*
X1405018Y1174841D1*
X1406444Y1176267D1*
X1409329Y1177726D1*
X1412181D1*
X1415066Y1176267D1*
X1419344Y1173415D1*
X1433703Y1159056D1*
Y1179152D1*
X1410755Y1189875D2*
X1409329D1*
X1406444Y1191301D1*
X1405018Y1192727D1*
X1403592Y1195612D1*
Y1201349D1*
X1405018Y1204201D1*
X1406444Y1205627D1*
X1409329Y1207086D1*
X1412181D1*
X1415066Y1205627D1*
X1419344Y1202775D1*
X1433703Y1188416D1*
Y1208512D1*
X1367918Y1629697D2*
Y1642597D1*
X1366459Y1646908D1*
X1365033Y1648367D1*
X1362181Y1649793D1*
X1359296D1*
X1356444Y1648367D1*
X1354985Y1646908D1*
X1353559Y1642597D1*
Y1629697D1*
X1383703D1*
X1367918Y1639745D2*
X1383703Y1649793D1*
X1360755Y1660516D2*
X1359329D1*
X1356444Y1661941D1*
X1355018Y1663367D1*
X1353592Y1666253D1*
Y1671989D1*
X1355018Y1674841D1*
X1356444Y1676267D1*
X1359329Y1677726D1*
X1362181D1*
X1365066Y1676267D1*
X1369344Y1673415D1*
X1383703Y1659056D1*
Y1679152D1*
X1353592Y1691301D2*
Y1707053D1*
X1365066Y1698464D1*
Y1702775D1*
X1366492Y1705627D1*
X1367918Y1707053D1*
X1372229Y1708512D1*
X1375081D1*
X1379392Y1707053D1*
X1382277Y1704201D1*
X1383703Y1699890D1*
Y1695579D1*
X1382277Y1691301D1*
X1380818Y1689875D1*
X1377966Y1688416D1*
X842918Y1628984D2*
Y1641884D1*
X841459Y1646195D1*
X840033Y1647654D1*
X837181Y1649080D1*
X834296D1*
X831444Y1647654D1*
X829985Y1646195D1*
X828559Y1641884D1*
Y1628984D1*
X858703D1*
X842918Y1639032D2*
X858703Y1649080D1*
X835755Y1659803D2*
X834329D1*
X831444Y1661229D1*
X830018Y1662654D1*
X828592Y1665540D1*
Y1671277D1*
X830018Y1674128D1*
X831444Y1675554D1*
X834329Y1677013D1*
X837181D1*
X840066Y1675554D1*
X844344Y1672702D1*
X858703Y1658343D1*
Y1678439D1*
Y1702062D2*
X828592D1*
X848655Y1687703D1*
Y1709225D1*
X1342918Y654697D2*
Y667597D1*
X1341459Y671908D1*
X1340033Y673367D1*
X1337181Y674793D1*
X1334296D1*
X1331444Y673367D1*
X1329985Y671908D1*
X1328559Y667597D1*
Y654697D1*
X1358703D1*
X1342918Y664745D2*
X1358703Y674793D1*
X1335755Y685516D2*
X1334329D1*
X1331444Y686941D1*
X1330018Y688367D1*
X1328592Y691253D1*
Y696989D1*
X1330018Y699841D1*
X1331444Y701267D1*
X1334329Y702726D1*
X1337181D1*
X1340066Y701267D1*
X1344344Y698415D1*
X1358703Y684056D1*
Y704152D1*
Y719153D2*
X1328592Y733512D1*
Y713416D1*
X1217918Y1079714D2*
Y1092613D1*
X1216459Y1096924D1*
X1215033Y1098384D1*
X1212181Y1099809D1*
X1209296D1*
X1206444Y1098384D1*
X1204985Y1096924D1*
X1203559Y1092613D1*
Y1079714D1*
X1233703D1*
X1217918Y1089761D2*
X1233703Y1099809D1*
X1210755Y1110532D2*
X1209329D1*
X1206444Y1111958D1*
X1205018Y1113384D1*
X1203592Y1116269D1*
Y1122006D1*
X1205018Y1124858D1*
X1206444Y1126284D1*
X1209329Y1127743D1*
X1212181D1*
X1215066Y1126284D1*
X1219344Y1123432D1*
X1233703Y1109073D1*
Y1129169D1*
X1203592Y1145595D2*
X1205018Y1141318D1*
X1207870Y1139858D1*
X1210755D1*
X1213607Y1141318D1*
X1215066Y1144169D1*
X1216492Y1149906D1*
X1217918Y1154217D1*
X1220803Y1157069D1*
X1223655Y1158495D1*
X1227966D1*
X1230818Y1157069D1*
X1232277Y1155643D1*
X1233703Y1151332D1*
Y1145595D1*
X1232277Y1141318D1*
X1230818Y1139858D1*
X1227966Y1138432D1*
X1223655D1*
X1220803Y1139858D1*
X1217918Y1142744D1*
X1216492Y1147021D1*
X1215066Y1152758D1*
X1213607Y1155643D1*
X1210755Y1157069D1*
X1207870D1*
X1205018Y1155643D1*
X1203592Y1151332D1*
Y1145595D1*
X517918Y1080410D2*
Y1093310D1*
X516459Y1097621D1*
X515033Y1099080D1*
X512181Y1100506D1*
X509296D1*
X506444Y1099080D1*
X504985Y1097621D1*
X503559Y1093310D1*
Y1080410D1*
X533703D1*
X517918Y1090458D2*
X533703Y1100506D1*
X510755Y1111229D2*
X509329D1*
X506444Y1112654D1*
X505018Y1114080D1*
X503592Y1116965D1*
Y1122702D1*
X505018Y1125554D1*
X506444Y1126980D1*
X509329Y1128439D1*
X512181D1*
X515066Y1126980D1*
X519344Y1124128D1*
X533703Y1109769D1*
Y1129865D1*
X513607Y1157799D2*
X517918Y1156340D1*
X520803Y1153488D1*
X522229Y1149177D1*
Y1147751D1*
X520803Y1143440D1*
X517918Y1140588D1*
X513607Y1139129D1*
X512181D1*
X507870Y1140588D1*
X505018Y1143440D1*
X503592Y1147751D1*
Y1149177D1*
X505018Y1153488D1*
X507870Y1156340D1*
X513607Y1157799D1*
X520803D1*
X527966Y1156340D1*
X532277Y1153488D1*
X533703Y1149177D1*
Y1146325D1*
X532277Y1142014D1*
X529392Y1140588D1*
X1442918Y654697D2*
Y667597D1*
X1441459Y671908D1*
X1440033Y673367D1*
X1437181Y674793D1*
X1434296D1*
X1431444Y673367D1*
X1429985Y671908D1*
X1428559Y667597D1*
Y654697D1*
X1458703D1*
X1442918Y664745D2*
X1458703Y674793D1*
X1428592Y686942D2*
Y702693D1*
X1440066Y694104D1*
Y698415D1*
X1441492Y701267D1*
X1442918Y702693D1*
X1447229Y704152D1*
X1450081D1*
X1454392Y702693D1*
X1457277Y699841D1*
X1458703Y695530D1*
Y691219D1*
X1457277Y686941D1*
X1455818Y685515D1*
X1452966Y684056D1*
X1428592Y722038D2*
X1430018Y717727D1*
X1434329Y714842D1*
X1441492Y713416D1*
X1445803D1*
X1452966Y714842D1*
X1457277Y717727D1*
X1458703Y722038D1*
Y724890D1*
X1457277Y729201D1*
X1452966Y732053D1*
X1445803Y733512D1*
X1441492D1*
X1434329Y732053D1*
X1430018Y729201D1*
X1428592Y724890D1*
Y722038D1*
X1434329Y732053D2*
X1452966Y714842D1*
X1642918Y661147D2*
Y674047D1*
X1641459Y678358D1*
X1640033Y679817D1*
X1637181Y681243D1*
X1634296D1*
X1631444Y679817D1*
X1629985Y678358D1*
X1628559Y674047D1*
Y661147D1*
X1658703D1*
X1642918Y671195D2*
X1658703Y681243D1*
X1628592Y693391D2*
Y709143D1*
X1640066Y700554D1*
Y704865D1*
X1641492Y707717D1*
X1642918Y709143D1*
X1647229Y710602D1*
X1650081D1*
X1654392Y709143D1*
X1657277Y706291D1*
X1658703Y701980D1*
Y697669D1*
X1657277Y693391D1*
X1655818Y691965D1*
X1652966Y690506D1*
X1634329Y719866D2*
X1632870Y722751D1*
X1628592Y727062D1*
X1658703D1*
X1742918Y654697D2*
Y667597D1*
X1741459Y671908D1*
X1740033Y673367D1*
X1737181Y674793D1*
X1734296D1*
X1731444Y673367D1*
X1729985Y671908D1*
X1728559Y667597D1*
Y654697D1*
X1758703D1*
X1742918Y664745D2*
X1758703Y674793D1*
X1728592Y686942D2*
Y702693D1*
X1740066Y694104D1*
Y698415D1*
X1741492Y701267D1*
X1742918Y702693D1*
X1747229Y704152D1*
X1750081D1*
X1754392Y702693D1*
X1757277Y699841D1*
X1758703Y695530D1*
Y691219D1*
X1757277Y686941D1*
X1755818Y685515D1*
X1752966Y684056D1*
X1735755Y714875D2*
X1734329D1*
X1731444Y716301D1*
X1730018Y717727D1*
X1728592Y720612D1*
Y726349D1*
X1730018Y729201D1*
X1731444Y730627D1*
X1734329Y732086D1*
X1737181D1*
X1740066Y730627D1*
X1744344Y727775D1*
X1758703Y713416D1*
Y733512D1*
X1017918Y1079697D2*
Y1092597D1*
X1016459Y1096908D1*
X1015033Y1098367D1*
X1012181Y1099793D1*
X1009296D1*
X1006444Y1098367D1*
X1004985Y1096908D1*
X1003559Y1092597D1*
Y1079697D1*
X1033703D1*
X1017918Y1089745D2*
X1033703Y1099793D1*
X1003592Y1111942D2*
Y1127693D1*
X1015066Y1119104D1*
Y1123415D1*
X1016492Y1126267D1*
X1017918Y1127693D1*
X1022229Y1129152D1*
X1025081D1*
X1029392Y1127693D1*
X1032277Y1124841D1*
X1033703Y1120530D1*
Y1116219D1*
X1032277Y1111941D1*
X1030818Y1110515D1*
X1027966Y1109056D1*
X1003592Y1141301D2*
Y1157053D1*
X1015066Y1148464D1*
Y1152775D1*
X1016492Y1155627D1*
X1017918Y1157053D1*
X1022229Y1158512D1*
X1025081D1*
X1029392Y1157053D1*
X1032277Y1154201D1*
X1033703Y1149890D1*
Y1145579D1*
X1032277Y1141301D1*
X1030818Y1139875D1*
X1027966Y1138416D1*
X1317918Y1078984D2*
Y1091884D1*
X1316459Y1096195D1*
X1315033Y1097654D1*
X1312181Y1099080D1*
X1309296D1*
X1306444Y1097654D1*
X1304985Y1096195D1*
X1303559Y1091884D1*
Y1078984D1*
X1333703D1*
X1317918Y1089032D2*
X1333703Y1099080D1*
X1303592Y1111229D2*
Y1126980D1*
X1315066Y1118391D1*
Y1122702D1*
X1316492Y1125554D1*
X1317918Y1126980D1*
X1322229Y1128439D1*
X1325081D1*
X1329392Y1126980D1*
X1332277Y1124128D1*
X1333703Y1119817D1*
Y1115506D1*
X1332277Y1111228D1*
X1330818Y1109803D1*
X1327966Y1108343D1*
X1333703Y1152062D2*
X1303592D1*
X1323655Y1137703D1*
Y1159225D1*
X1117918Y1079697D2*
Y1092597D1*
X1116459Y1096908D1*
X1115033Y1098367D1*
X1112181Y1099793D1*
X1109296D1*
X1106444Y1098367D1*
X1104985Y1096908D1*
X1103559Y1092597D1*
Y1079697D1*
X1133703D1*
X1117918Y1089745D2*
X1133703Y1099793D1*
X1103592Y1111942D2*
Y1127693D1*
X1115066Y1119104D1*
Y1123415D1*
X1116492Y1126267D1*
X1117918Y1127693D1*
X1122229Y1129152D1*
X1125081D1*
X1129392Y1127693D1*
X1132277Y1124841D1*
X1133703Y1120530D1*
Y1116219D1*
X1132277Y1111941D1*
X1130818Y1110515D1*
X1127966Y1109056D1*
X1103592Y1155627D2*
Y1141301D1*
X1116492Y1139875D1*
X1115066Y1141301D1*
X1113607Y1145612D1*
Y1149890D1*
X1115066Y1154201D1*
X1117918Y1157086D1*
X1122229Y1158512D1*
X1125081D1*
X1129392Y1157086D1*
X1132277Y1154201D1*
X1133703Y1149890D1*
Y1145612D1*
X1132277Y1141301D1*
X1130818Y1139875D1*
X1127966Y1138416D1*
X717918Y1080426D2*
Y1093326D1*
X716459Y1097637D1*
X715033Y1099097D1*
X712181Y1100522D1*
X709296D1*
X706444Y1099097D1*
X704985Y1097637D1*
X703559Y1093326D1*
Y1080426D1*
X733703D1*
X717918Y1090474D2*
X733703Y1100522D1*
X703592Y1112671D2*
Y1128423D1*
X715066Y1119834D1*
Y1124145D1*
X716492Y1126997D1*
X717918Y1128423D1*
X722229Y1129882D1*
X725081D1*
X729392Y1128423D1*
X732277Y1125571D1*
X733703Y1121260D1*
Y1116949D1*
X732277Y1112671D1*
X730818Y1111245D1*
X727966Y1109786D1*
X707870Y1156356D2*
X705018Y1154930D1*
X703592Y1150619D1*
Y1147768D1*
X705018Y1143457D1*
X709329Y1140571D1*
X716492Y1139145D1*
X723655D1*
X729392Y1140571D1*
X732277Y1143456D1*
X733703Y1147768D1*
Y1149193D1*
X732277Y1153471D1*
X729392Y1156356D1*
X725081Y1157782D1*
X723655D1*
X719344Y1156356D1*
X716492Y1153471D1*
X715066Y1149193D1*
Y1147768D1*
X716492Y1143457D1*
X719344Y1140571D1*
X723655Y1139145D1*
X417918Y1079697D2*
Y1092597D1*
X416459Y1096908D1*
X415033Y1098367D1*
X412181Y1099793D1*
X409296D1*
X406444Y1098367D1*
X404985Y1096908D1*
X403559Y1092597D1*
Y1079697D1*
X433703D1*
X417918Y1089745D2*
X433703Y1099793D1*
X403592Y1111942D2*
Y1127693D1*
X415066Y1119104D1*
Y1123415D1*
X416492Y1126267D1*
X417918Y1127693D1*
X422229Y1129152D1*
X425081D1*
X429392Y1127693D1*
X432277Y1124841D1*
X433703Y1120530D1*
Y1116219D1*
X432277Y1111941D1*
X430818Y1110515D1*
X427966Y1109056D1*
X433703Y1144153D2*
X403592Y1158512D1*
Y1138416D1*
X817918Y1079714D2*
Y1092613D1*
X816459Y1096924D1*
X815033Y1098384D1*
X812181Y1099809D1*
X809296D1*
X806444Y1098384D1*
X804985Y1096924D1*
X803559Y1092613D1*
Y1079714D1*
X833703D1*
X817918Y1089761D2*
X833703Y1099809D1*
X803592Y1111958D2*
Y1127710D1*
X815066Y1119121D1*
Y1123432D1*
X816492Y1126284D1*
X817918Y1127710D1*
X822229Y1129169D1*
X825081D1*
X829392Y1127710D1*
X832277Y1124858D1*
X833703Y1120547D1*
Y1116236D1*
X832277Y1111958D1*
X830818Y1110532D1*
X827966Y1109073D1*
X803592Y1145595D2*
X805018Y1141318D1*
X807870Y1139858D1*
X810755D1*
X813607Y1141318D1*
X815066Y1144169D1*
X816492Y1149906D1*
X817918Y1154217D1*
X820803Y1157069D1*
X823655Y1158495D1*
X827966D1*
X830818Y1157069D1*
X832277Y1155643D1*
X833703Y1151332D1*
Y1145595D1*
X832277Y1141318D1*
X830818Y1139858D1*
X827966Y1138432D1*
X823655D1*
X820803Y1139858D1*
X817918Y1142744D1*
X816492Y1147021D1*
X815066Y1152758D1*
X813607Y1155643D1*
X810755Y1157069D1*
X807870D1*
X805018Y1155643D1*
X803592Y1151332D1*
Y1145595D1*
X724168Y2459445D2*
Y2472345D1*
X722709Y2476656D1*
X721283Y2478115D1*
X718431Y2479541D1*
X715546D1*
X712694Y2478115D1*
X711235Y2476656D1*
X709809Y2472345D1*
Y2459445D1*
X739953D1*
X724168Y2469493D2*
X739953Y2479541D1*
X709842Y2491690D2*
Y2507442D1*
X721316Y2498853D1*
Y2503164D1*
X722742Y2506016D1*
X724168Y2507442D1*
X728479Y2508901D1*
X731331D1*
X735642Y2507442D1*
X738527Y2504590D1*
X739953Y2500279D1*
Y2495968D1*
X738527Y2491690D1*
X737068Y2490264D1*
X734216Y2488805D1*
X719857Y2536834D2*
X724168Y2535375D1*
X727053Y2532523D1*
X728479Y2528212D1*
Y2526786D1*
X727053Y2522475D1*
X724168Y2519623D1*
X719857Y2518164D1*
X718431D1*
X714120Y2519623D1*
X711268Y2522475D1*
X709842Y2526786D1*
Y2528212D1*
X711268Y2532523D1*
X714120Y2535375D1*
X719857Y2536834D1*
X727053D1*
X734216Y2535375D1*
X738527Y2532523D1*
X739953Y2528212D1*
Y2525360D1*
X738527Y2521049D1*
X735642Y2519623D1*
X630418Y2458019D2*
Y2470919D1*
X628959Y2475230D1*
X627533Y2476689D1*
X624681Y2478115D1*
X621796D1*
X618944Y2476689D1*
X617485Y2475230D1*
X616059Y2470919D1*
Y2458019D1*
X646203D1*
X630418Y2468067D2*
X646203Y2478115D1*
Y2501738D2*
X616092D1*
X636155Y2487379D1*
Y2508901D1*
X616092Y2526786D2*
X617518Y2522475D1*
X621829Y2519590D1*
X628992Y2518164D1*
X633303D1*
X640466Y2519590D1*
X644777Y2522475D1*
X646203Y2526786D1*
Y2529638D1*
X644777Y2533949D1*
X640466Y2536801D1*
X633303Y2538260D1*
X628992D1*
X621829Y2536801D1*
X617518Y2533949D1*
X616092Y2529638D1*
Y2526786D1*
X621829Y2536801D2*
X640466Y2519590D1*
X455418Y2464469D2*
Y2477369D1*
X453959Y2481680D1*
X452533Y2483139D1*
X449681Y2484565D1*
X446796D1*
X443944Y2483139D1*
X442485Y2481680D1*
X441059Y2477369D1*
Y2464469D1*
X471203D1*
X455418Y2474517D2*
X471203Y2484565D1*
Y2508188D2*
X441092D1*
X461155Y2493829D1*
Y2515351D1*
X446829Y2524614D2*
X445370Y2527499D1*
X441092Y2531810D1*
X471203D1*
X692918Y878984D2*
Y891884D1*
X691459Y896195D1*
X690033Y897654D1*
X687181Y899080D1*
X684296D1*
X681444Y897654D1*
X679985Y896195D1*
X678559Y891884D1*
Y878984D1*
X708703D1*
X692918Y889032D2*
X708703Y899080D1*
Y922702D2*
X678592D1*
X698655Y908343D1*
Y929865D1*
X678592Y942014D2*
Y957766D1*
X690066Y949177D1*
Y953488D1*
X691492Y956340D1*
X692918Y957766D1*
X697229Y959225D1*
X700081D1*
X704392Y957766D1*
X707277Y954914D1*
X708703Y950603D1*
Y946292D1*
X707277Y942014D1*
X705818Y940588D1*
X702966Y939129D1*
X817918Y878271D2*
Y891171D1*
X816459Y895482D1*
X815033Y896941D1*
X812181Y898367D1*
X809296D1*
X806444Y896941D1*
X804985Y895482D1*
X803559Y891171D1*
Y878271D1*
X833703D1*
X817918Y888319D2*
X833703Y898367D1*
Y921989D2*
X803592D1*
X823655Y907630D1*
Y929152D1*
X833703Y952775D2*
X803592D1*
X823655Y938416D1*
Y959938D1*
X1042918Y728984D2*
Y741884D1*
X1041459Y746195D1*
X1040033Y747654D1*
X1037181Y749080D1*
X1034296D1*
X1031444Y747654D1*
X1029985Y746195D1*
X1028559Y741884D1*
Y728984D1*
X1058703D1*
X1042918Y739032D2*
X1058703Y749080D1*
Y772702D2*
X1028592D1*
X1048655Y758343D1*
Y779865D1*
X1028592Y806340D2*
Y792014D1*
X1041492Y790588D1*
X1040066Y792014D1*
X1038607Y796325D1*
Y800603D1*
X1040066Y804914D1*
X1042918Y807799D1*
X1047229Y809225D1*
X1050081D1*
X1054392Y807799D1*
X1057277Y804914D1*
X1058703Y800603D1*
Y796325D1*
X1057277Y792014D1*
X1055818Y790588D1*
X1052966Y789129D1*
X692918Y728984D2*
Y741884D1*
X691459Y746195D1*
X690033Y747654D1*
X687181Y749080D1*
X684296D1*
X681444Y747654D1*
X679985Y746195D1*
X678559Y741884D1*
Y728984D1*
X708703D1*
X692918Y739032D2*
X708703Y749080D1*
Y772702D2*
X678592D1*
X698655Y758343D1*
Y779865D1*
X708703Y794866D2*
X678592Y809225D1*
Y789129D1*
X817918Y729001D2*
Y741900D1*
X816459Y746211D1*
X815033Y747671D1*
X812181Y749097D1*
X809296D1*
X806444Y747671D1*
X804985Y746211D1*
X803559Y741900D1*
Y729001D1*
X833703D1*
X817918Y739049D2*
X833703Y749096D1*
Y772719D2*
X803592D1*
X823655Y758360D1*
Y779882D1*
X803592Y796308D2*
X805018Y792031D1*
X807870Y790571D1*
X810755D1*
X813607Y792031D1*
X815066Y794882D1*
X816492Y800619D1*
X817918Y804930D1*
X820803Y807782D1*
X823655Y809208D1*
X827966D1*
X830818Y807782D1*
X832277Y806356D1*
X833703Y802045D1*
Y796308D1*
X832277Y792031D1*
X830818Y790571D1*
X827966Y789145D1*
X823655D1*
X820803Y790571D1*
X817918Y793457D1*
X816492Y797734D1*
X815066Y803471D1*
X813607Y806356D1*
X810755Y807782D1*
X807870D1*
X805018Y806356D1*
X803592Y802045D1*
Y796308D1*
X1042918Y879697D2*
Y892597D1*
X1041459Y896908D1*
X1040033Y898367D1*
X1037181Y899793D1*
X1034296D1*
X1031444Y898367D1*
X1029985Y896908D1*
X1028559Y892597D1*
Y879697D1*
X1058703D1*
X1042918Y889745D2*
X1058703Y899793D1*
Y923415D2*
X1028592D1*
X1048655Y909056D1*
Y930578D1*
X1038607Y958512D2*
X1042918Y957053D1*
X1045803Y954201D1*
X1047229Y949890D1*
Y948464D1*
X1045803Y944153D1*
X1042918Y941301D1*
X1038607Y939842D1*
X1037181D1*
X1032870Y941301D1*
X1030018Y944153D1*
X1028592Y948464D1*
Y949890D1*
X1030018Y954201D1*
X1032870Y957053D1*
X1038607Y958512D1*
X1045803D1*
X1052966Y957053D1*
X1057277Y954201D1*
X1058703Y949890D1*
Y947038D1*
X1057277Y942727D1*
X1054392Y941301D1*
X1665271Y4330463D2*
Y4300319D1*
X1675319D1*
X1679630Y4301779D1*
X1682515Y4304630D1*
X1683941Y4307515D1*
X1685367Y4311793D1*
Y4318989D1*
X1683941Y4323300D1*
X1682515Y4326152D1*
X1679630Y4329037D1*
X1675319Y4330463D1*
X1665271D1*
X1696089Y4323267D2*
Y4324693D1*
X1697515Y4327578D1*
X1698941Y4329004D1*
X1701826Y4330430D1*
X1707563D1*
X1710415Y4329004D1*
X1711841Y4327578D1*
X1713300Y4324693D1*
Y4321841D1*
X1711841Y4318956D1*
X1708989Y4314678D1*
X1694630Y4300319D1*
X1714726D1*
X1732612Y4330430D2*
X1728301Y4329004D1*
X1725416Y4324693D1*
X1723990Y4317530D1*
Y4313219D1*
X1725416Y4306056D1*
X1728301Y4301745D1*
X1732612Y4300319D1*
X1735464D1*
X1739775Y4301745D1*
X1742627Y4306056D1*
X1744086Y4313219D1*
Y4317530D1*
X1742627Y4324693D1*
X1739775Y4329004D1*
X1735464Y4330430D1*
X1732612D1*
X1742627Y4324693D2*
X1725416Y4306056D1*
M02*
